G04 #@! TF.GenerationSoftware,KiCad,Pcbnew,5.1.7-a382d34a8~88~ubuntu18.04.1*
G04 #@! TF.CreationDate,2021-11-24T17:02:52+01:00*
G04 #@! TF.ProjectId,DE10-LiteShield,44453130-2d4c-4697-9465-536869656c64,rev?*
G04 #@! TF.SameCoordinates,Original*
G04 #@! TF.FileFunction,Soldermask,Top*
G04 #@! TF.FilePolarity,Negative*
%FSLAX46Y46*%
G04 Gerber Fmt 4.6, Leading zero omitted, Abs format (unit mm)*
G04 Created by KiCad (PCBNEW 5.1.7-a382d34a8~88~ubuntu18.04.1) date 2021-11-24 17:02:52*
%MOMM*%
%LPD*%
G01*
G04 APERTURE LIST*
G04 #@! TA.AperFunction,Profile*
%ADD10C,0.050000*%
G04 #@! TD*
%ADD11C,3.302000*%
%ADD12O,1.802000X1.802000*%
G04 APERTURE END LIST*
D10*
X103000000Y-40000000D02*
X103000000Y-103600000D01*
X103000000Y-40000000D02*
X200500000Y-40000000D01*
X200500000Y-150000000D02*
X200500000Y-166000000D01*
X103000000Y-150000000D02*
X103000000Y-166000000D01*
X103000000Y-135000000D02*
X103000000Y-150000000D01*
X200500000Y-135000000D02*
X200500000Y-150000000D01*
X200500000Y-135000000D02*
X200500000Y-120000000D01*
X103000000Y-120000000D02*
X103000000Y-135000000D01*
X124000000Y-47000000D02*
X124000000Y-70000000D01*
X180000000Y-47000000D02*
X124000000Y-47000000D01*
X180000000Y-70000000D02*
X180000000Y-47000000D01*
X124000000Y-70000000D02*
X180000000Y-70000000D01*
X103000000Y-166000000D02*
X200500000Y-166000000D01*
X103000000Y-103600000D02*
X103000000Y-120000000D01*
X200500000Y-103600000D02*
X200500000Y-120000000D01*
X200500000Y-40000000D02*
X200500000Y-103600000D01*
X103000000Y-40000000D02*
X103000000Y-103600000D01*
X103000000Y-40000000D02*
X200500000Y-40000000D01*
X200500000Y-150000000D02*
X200500000Y-166000000D01*
X103000000Y-150000000D02*
X103000000Y-166000000D01*
X103000000Y-135000000D02*
X103000000Y-150000000D01*
X200500000Y-135000000D02*
X200500000Y-150000000D01*
X200500000Y-135000000D02*
X200500000Y-120000000D01*
X103000000Y-120000000D02*
X103000000Y-135000000D01*
X124000000Y-47000000D02*
X124000000Y-70000000D01*
X180000000Y-47000000D02*
X124000000Y-47000000D01*
X180000000Y-70000000D02*
X180000000Y-47000000D01*
X124000000Y-70000000D02*
X180000000Y-70000000D01*
X103000000Y-166000000D02*
X200500000Y-166000000D01*
X103000000Y-103600000D02*
X103000000Y-120000000D01*
X200500000Y-103600000D02*
X200500000Y-120000000D01*
X200500000Y-40000000D02*
X200500000Y-103600000D01*
D11*
X105910000Y-43430000D03*
X196330000Y-43420000D03*
X187300000Y-101260000D03*
X118660000Y-101190000D03*
X176500000Y-74500000D03*
X127500000Y-74500000D03*
X176500000Y-132500000D03*
X127500000Y-132500000D03*
D12*
X198196000Y-139430000D03*
G36*
G01*
X196506000Y-140331000D02*
X194806000Y-140331000D01*
G75*
G02*
X194755000Y-140280000I0J51000D01*
G01*
X194755000Y-138580000D01*
G75*
G02*
X194806000Y-138529000I51000J0D01*
G01*
X196506000Y-138529000D01*
G75*
G02*
X196557000Y-138580000I0J-51000D01*
G01*
X196557000Y-140280000D01*
G75*
G02*
X196506000Y-140331000I-51000J0D01*
G01*
G37*
X198196000Y-144080000D03*
G36*
G01*
X196506000Y-144981000D02*
X194806000Y-144981000D01*
G75*
G02*
X194755000Y-144930000I0J51000D01*
G01*
X194755000Y-143230000D01*
G75*
G02*
X194806000Y-143179000I51000J0D01*
G01*
X196506000Y-143179000D01*
G75*
G02*
X196557000Y-143230000I0J-51000D01*
G01*
X196557000Y-144930000D01*
G75*
G02*
X196506000Y-144981000I-51000J0D01*
G01*
G37*
X107950000Y-162052000D03*
X107950000Y-159512000D03*
G36*
G01*
X107049000Y-157822000D02*
X107049000Y-156122000D01*
G75*
G02*
X107100000Y-156071000I51000J0D01*
G01*
X108800000Y-156071000D01*
G75*
G02*
X108851000Y-156122000I0J-51000D01*
G01*
X108851000Y-157822000D01*
G75*
G02*
X108800000Y-157873000I-51000J0D01*
G01*
X107100000Y-157873000D01*
G75*
G02*
X107049000Y-157822000I0J51000D01*
G01*
G37*
X195580000Y-162052000D03*
X195580000Y-159512000D03*
G36*
G01*
X194679000Y-157822000D02*
X194679000Y-156122000D01*
G75*
G02*
X194730000Y-156071000I51000J0D01*
G01*
X196430000Y-156071000D01*
G75*
G02*
X196481000Y-156122000I0J-51000D01*
G01*
X196481000Y-157822000D01*
G75*
G02*
X196430000Y-157873000I-51000J0D01*
G01*
X194730000Y-157873000D01*
G75*
G02*
X194679000Y-157822000I0J51000D01*
G01*
G37*
X172720000Y-162052000D03*
X172720000Y-159512000D03*
G36*
G01*
X171819000Y-157822000D02*
X171819000Y-156122000D01*
G75*
G02*
X171870000Y-156071000I51000J0D01*
G01*
X173570000Y-156071000D01*
G75*
G02*
X173621000Y-156122000I0J-51000D01*
G01*
X173621000Y-157822000D01*
G75*
G02*
X173570000Y-157873000I-51000J0D01*
G01*
X171870000Y-157873000D01*
G75*
G02*
X171819000Y-157822000I0J51000D01*
G01*
G37*
X149860000Y-162052000D03*
X149860000Y-159512000D03*
G36*
G01*
X148959000Y-157822000D02*
X148959000Y-156122000D01*
G75*
G02*
X149010000Y-156071000I51000J0D01*
G01*
X150710000Y-156071000D01*
G75*
G02*
X150761000Y-156122000I0J-51000D01*
G01*
X150761000Y-157822000D01*
G75*
G02*
X150710000Y-157873000I-51000J0D01*
G01*
X149010000Y-157873000D01*
G75*
G02*
X148959000Y-157822000I0J51000D01*
G01*
G37*
X111760000Y-162052000D03*
X111760000Y-159512000D03*
G36*
G01*
X110859000Y-157822000D02*
X110859000Y-156122000D01*
G75*
G02*
X110910000Y-156071000I51000J0D01*
G01*
X112610000Y-156071000D01*
G75*
G02*
X112661000Y-156122000I0J-51000D01*
G01*
X112661000Y-157822000D01*
G75*
G02*
X112610000Y-157873000I-51000J0D01*
G01*
X110910000Y-157873000D01*
G75*
G02*
X110859000Y-157822000I0J51000D01*
G01*
G37*
X191770000Y-162052000D03*
X191770000Y-159512000D03*
G36*
G01*
X190869000Y-157822000D02*
X190869000Y-156122000D01*
G75*
G02*
X190920000Y-156071000I51000J0D01*
G01*
X192620000Y-156071000D01*
G75*
G02*
X192671000Y-156122000I0J-51000D01*
G01*
X192671000Y-157822000D01*
G75*
G02*
X192620000Y-157873000I-51000J0D01*
G01*
X190920000Y-157873000D01*
G75*
G02*
X190869000Y-157822000I0J51000D01*
G01*
G37*
X168910000Y-162052000D03*
X168910000Y-159512000D03*
G36*
G01*
X168009000Y-157822000D02*
X168009000Y-156122000D01*
G75*
G02*
X168060000Y-156071000I51000J0D01*
G01*
X169760000Y-156071000D01*
G75*
G02*
X169811000Y-156122000I0J-51000D01*
G01*
X169811000Y-157822000D01*
G75*
G02*
X169760000Y-157873000I-51000J0D01*
G01*
X168060000Y-157873000D01*
G75*
G02*
X168009000Y-157822000I0J51000D01*
G01*
G37*
X146050000Y-162052000D03*
X146050000Y-159512000D03*
G36*
G01*
X145149000Y-157822000D02*
X145149000Y-156122000D01*
G75*
G02*
X145200000Y-156071000I51000J0D01*
G01*
X146900000Y-156071000D01*
G75*
G02*
X146951000Y-156122000I0J-51000D01*
G01*
X146951000Y-157822000D01*
G75*
G02*
X146900000Y-157873000I-51000J0D01*
G01*
X145200000Y-157873000D01*
G75*
G02*
X145149000Y-157822000I0J51000D01*
G01*
G37*
X115570000Y-162052000D03*
X115570000Y-159512000D03*
G36*
G01*
X114669000Y-157822000D02*
X114669000Y-156122000D01*
G75*
G02*
X114720000Y-156071000I51000J0D01*
G01*
X116420000Y-156071000D01*
G75*
G02*
X116471000Y-156122000I0J-51000D01*
G01*
X116471000Y-157822000D01*
G75*
G02*
X116420000Y-157873000I-51000J0D01*
G01*
X114720000Y-157873000D01*
G75*
G02*
X114669000Y-157822000I0J51000D01*
G01*
G37*
X187960000Y-162052000D03*
X187960000Y-159512000D03*
G36*
G01*
X187059000Y-157822000D02*
X187059000Y-156122000D01*
G75*
G02*
X187110000Y-156071000I51000J0D01*
G01*
X188810000Y-156071000D01*
G75*
G02*
X188861000Y-156122000I0J-51000D01*
G01*
X188861000Y-157822000D01*
G75*
G02*
X188810000Y-157873000I-51000J0D01*
G01*
X187110000Y-157873000D01*
G75*
G02*
X187059000Y-157822000I0J51000D01*
G01*
G37*
X165100000Y-162052000D03*
X165100000Y-159512000D03*
G36*
G01*
X164199000Y-157822000D02*
X164199000Y-156122000D01*
G75*
G02*
X164250000Y-156071000I51000J0D01*
G01*
X165950000Y-156071000D01*
G75*
G02*
X166001000Y-156122000I0J-51000D01*
G01*
X166001000Y-157822000D01*
G75*
G02*
X165950000Y-157873000I-51000J0D01*
G01*
X164250000Y-157873000D01*
G75*
G02*
X164199000Y-157822000I0J51000D01*
G01*
G37*
X142240000Y-162052000D03*
X142240000Y-159512000D03*
G36*
G01*
X141339000Y-157822000D02*
X141339000Y-156122000D01*
G75*
G02*
X141390000Y-156071000I51000J0D01*
G01*
X143090000Y-156071000D01*
G75*
G02*
X143141000Y-156122000I0J-51000D01*
G01*
X143141000Y-157822000D01*
G75*
G02*
X143090000Y-157873000I-51000J0D01*
G01*
X141390000Y-157873000D01*
G75*
G02*
X141339000Y-157822000I0J51000D01*
G01*
G37*
X119380000Y-162052000D03*
X119380000Y-159512000D03*
G36*
G01*
X118479000Y-157822000D02*
X118479000Y-156122000D01*
G75*
G02*
X118530000Y-156071000I51000J0D01*
G01*
X120230000Y-156071000D01*
G75*
G02*
X120281000Y-156122000I0J-51000D01*
G01*
X120281000Y-157822000D01*
G75*
G02*
X120230000Y-157873000I-51000J0D01*
G01*
X118530000Y-157873000D01*
G75*
G02*
X118479000Y-157822000I0J51000D01*
G01*
G37*
X184150000Y-162052000D03*
X184150000Y-159512000D03*
G36*
G01*
X183249000Y-157822000D02*
X183249000Y-156122000D01*
G75*
G02*
X183300000Y-156071000I51000J0D01*
G01*
X185000000Y-156071000D01*
G75*
G02*
X185051000Y-156122000I0J-51000D01*
G01*
X185051000Y-157822000D01*
G75*
G02*
X185000000Y-157873000I-51000J0D01*
G01*
X183300000Y-157873000D01*
G75*
G02*
X183249000Y-157822000I0J51000D01*
G01*
G37*
X161290000Y-162052000D03*
X161290000Y-159512000D03*
G36*
G01*
X160389000Y-157822000D02*
X160389000Y-156122000D01*
G75*
G02*
X160440000Y-156071000I51000J0D01*
G01*
X162140000Y-156071000D01*
G75*
G02*
X162191000Y-156122000I0J-51000D01*
G01*
X162191000Y-157822000D01*
G75*
G02*
X162140000Y-157873000I-51000J0D01*
G01*
X160440000Y-157873000D01*
G75*
G02*
X160389000Y-157822000I0J51000D01*
G01*
G37*
X138430000Y-162052000D03*
X138430000Y-159512000D03*
G36*
G01*
X137529000Y-157822000D02*
X137529000Y-156122000D01*
G75*
G02*
X137580000Y-156071000I51000J0D01*
G01*
X139280000Y-156071000D01*
G75*
G02*
X139331000Y-156122000I0J-51000D01*
G01*
X139331000Y-157822000D01*
G75*
G02*
X139280000Y-157873000I-51000J0D01*
G01*
X137580000Y-157873000D01*
G75*
G02*
X137529000Y-157822000I0J51000D01*
G01*
G37*
X123190000Y-162052000D03*
X123190000Y-159512000D03*
G36*
G01*
X122289000Y-157822000D02*
X122289000Y-156122000D01*
G75*
G02*
X122340000Y-156071000I51000J0D01*
G01*
X124040000Y-156071000D01*
G75*
G02*
X124091000Y-156122000I0J-51000D01*
G01*
X124091000Y-157822000D01*
G75*
G02*
X124040000Y-157873000I-51000J0D01*
G01*
X122340000Y-157873000D01*
G75*
G02*
X122289000Y-157822000I0J51000D01*
G01*
G37*
X180340000Y-162052000D03*
X180340000Y-159512000D03*
G36*
G01*
X179439000Y-157822000D02*
X179439000Y-156122000D01*
G75*
G02*
X179490000Y-156071000I51000J0D01*
G01*
X181190000Y-156071000D01*
G75*
G02*
X181241000Y-156122000I0J-51000D01*
G01*
X181241000Y-157822000D01*
G75*
G02*
X181190000Y-157873000I-51000J0D01*
G01*
X179490000Y-157873000D01*
G75*
G02*
X179439000Y-157822000I0J51000D01*
G01*
G37*
X157480000Y-162052000D03*
X157480000Y-159512000D03*
G36*
G01*
X156579000Y-157822000D02*
X156579000Y-156122000D01*
G75*
G02*
X156630000Y-156071000I51000J0D01*
G01*
X158330000Y-156071000D01*
G75*
G02*
X158381000Y-156122000I0J-51000D01*
G01*
X158381000Y-157822000D01*
G75*
G02*
X158330000Y-157873000I-51000J0D01*
G01*
X156630000Y-157873000D01*
G75*
G02*
X156579000Y-157822000I0J51000D01*
G01*
G37*
X134620000Y-162052000D03*
X134620000Y-159512000D03*
G36*
G01*
X133719000Y-157822000D02*
X133719000Y-156122000D01*
G75*
G02*
X133770000Y-156071000I51000J0D01*
G01*
X135470000Y-156071000D01*
G75*
G02*
X135521000Y-156122000I0J-51000D01*
G01*
X135521000Y-157822000D01*
G75*
G02*
X135470000Y-157873000I-51000J0D01*
G01*
X133770000Y-157873000D01*
G75*
G02*
X133719000Y-157822000I0J51000D01*
G01*
G37*
X127000000Y-162052000D03*
X127000000Y-159512000D03*
G36*
G01*
X126099000Y-157822000D02*
X126099000Y-156122000D01*
G75*
G02*
X126150000Y-156071000I51000J0D01*
G01*
X127850000Y-156071000D01*
G75*
G02*
X127901000Y-156122000I0J-51000D01*
G01*
X127901000Y-157822000D01*
G75*
G02*
X127850000Y-157873000I-51000J0D01*
G01*
X126150000Y-157873000D01*
G75*
G02*
X126099000Y-157822000I0J51000D01*
G01*
G37*
X176530000Y-162052000D03*
X176530000Y-159512000D03*
G36*
G01*
X175629000Y-157822000D02*
X175629000Y-156122000D01*
G75*
G02*
X175680000Y-156071000I51000J0D01*
G01*
X177380000Y-156071000D01*
G75*
G02*
X177431000Y-156122000I0J-51000D01*
G01*
X177431000Y-157822000D01*
G75*
G02*
X177380000Y-157873000I-51000J0D01*
G01*
X175680000Y-157873000D01*
G75*
G02*
X175629000Y-157822000I0J51000D01*
G01*
G37*
X153670000Y-162052000D03*
X153670000Y-159512000D03*
G36*
G01*
X152769000Y-157822000D02*
X152769000Y-156122000D01*
G75*
G02*
X152820000Y-156071000I51000J0D01*
G01*
X154520000Y-156071000D01*
G75*
G02*
X154571000Y-156122000I0J-51000D01*
G01*
X154571000Y-157822000D01*
G75*
G02*
X154520000Y-157873000I-51000J0D01*
G01*
X152820000Y-157873000D01*
G75*
G02*
X152769000Y-157822000I0J51000D01*
G01*
G37*
X130810000Y-162052000D03*
X130810000Y-159512000D03*
G36*
G01*
X129909000Y-157822000D02*
X129909000Y-156122000D01*
G75*
G02*
X129960000Y-156071000I51000J0D01*
G01*
X131660000Y-156071000D01*
G75*
G02*
X131711000Y-156122000I0J-51000D01*
G01*
X131711000Y-157822000D01*
G75*
G02*
X131660000Y-157873000I-51000J0D01*
G01*
X129960000Y-157873000D01*
G75*
G02*
X129909000Y-157822000I0J51000D01*
G01*
G37*
X174660000Y-144360000D03*
X174660000Y-146900000D03*
X172120000Y-144360000D03*
X172120000Y-146900000D03*
X169580000Y-144360000D03*
X169580000Y-146900000D03*
X167040000Y-144360000D03*
X167040000Y-146900000D03*
X164500000Y-144360000D03*
X164500000Y-146900000D03*
X161960000Y-144360000D03*
X161960000Y-146900000D03*
X159420000Y-144360000D03*
X159420000Y-146900000D03*
X156880000Y-144360000D03*
X156880000Y-146900000D03*
X154340000Y-144360000D03*
X154340000Y-146900000D03*
X151800000Y-144360000D03*
X151800000Y-146900000D03*
X149260000Y-144360000D03*
X149260000Y-146900000D03*
X146720000Y-144360000D03*
X146720000Y-146900000D03*
X144180000Y-144360000D03*
X144180000Y-146900000D03*
X141640000Y-144360000D03*
X141640000Y-146900000D03*
X139100000Y-144360000D03*
X139100000Y-146900000D03*
X136560000Y-144360000D03*
X136560000Y-146900000D03*
X134020000Y-144360000D03*
X134020000Y-146900000D03*
X131480000Y-144360000D03*
X131480000Y-146900000D03*
X128940000Y-144360000D03*
X128940000Y-146900000D03*
X126400000Y-144360000D03*
G36*
G01*
X127250000Y-147801000D02*
X125550000Y-147801000D01*
G75*
G02*
X125499000Y-147750000I0J51000D01*
G01*
X125499000Y-146050000D01*
G75*
G02*
X125550000Y-145999000I51000J0D01*
G01*
X127250000Y-145999000D01*
G75*
G02*
X127301000Y-146050000I0J-51000D01*
G01*
X127301000Y-147750000D01*
G75*
G02*
X127250000Y-147801000I-51000J0D01*
G01*
G37*
X174760000Y-79740000D03*
X177300000Y-79740000D03*
X174760000Y-82280000D03*
X177300000Y-82280000D03*
X174760000Y-84820000D03*
X177300000Y-84820000D03*
X174760000Y-87360000D03*
X177300000Y-87360000D03*
X174760000Y-89900000D03*
X177300000Y-89900000D03*
X174760000Y-92440000D03*
X177300000Y-92440000D03*
X174760000Y-94980000D03*
X177300000Y-94980000D03*
X174760000Y-97520000D03*
X177300000Y-97520000D03*
X174760000Y-100060000D03*
X177300000Y-100060000D03*
X174760000Y-102600000D03*
X177300000Y-102600000D03*
X174760000Y-105140000D03*
X177300000Y-105140000D03*
X174760000Y-107680000D03*
X177300000Y-107680000D03*
X174760000Y-110220000D03*
X177300000Y-110220000D03*
X174760000Y-112760000D03*
X177300000Y-112760000D03*
X174760000Y-115300000D03*
X177300000Y-115300000D03*
X174760000Y-117840000D03*
X177300000Y-117840000D03*
X174760000Y-120380000D03*
X177300000Y-120380000D03*
X174760000Y-122920000D03*
X177300000Y-122920000D03*
X174760000Y-125460000D03*
X177300000Y-125460000D03*
X174760000Y-128000000D03*
G36*
G01*
X178201000Y-127150000D02*
X178201000Y-128850000D01*
G75*
G02*
X178150000Y-128901000I-51000J0D01*
G01*
X176450000Y-128901000D01*
G75*
G02*
X176399000Y-128850000I0J51000D01*
G01*
X176399000Y-127150000D01*
G75*
G02*
X176450000Y-127099000I51000J0D01*
G01*
X178150000Y-127099000D01*
G75*
G02*
X178201000Y-127150000I0J-51000D01*
G01*
G37*
X198196000Y-134480000D03*
G36*
G01*
X196506000Y-135381000D02*
X194806000Y-135381000D01*
G75*
G02*
X194755000Y-135330000I0J51000D01*
G01*
X194755000Y-133630000D01*
G75*
G02*
X194806000Y-133579000I51000J0D01*
G01*
X196506000Y-133579000D01*
G75*
G02*
X196557000Y-133630000I0J-51000D01*
G01*
X196557000Y-135330000D01*
G75*
G02*
X196506000Y-135381000I-51000J0D01*
G01*
G37*
M02*
