G04 #@! TF.GenerationSoftware,KiCad,Pcbnew,5.1.7-a382d34a8~88~ubuntu18.04.1*
G04 #@! TF.CreationDate,2021-11-24T17:02:52+01:00*
G04 #@! TF.ProjectId,DE10-LiteShield,44453130-2d4c-4697-9465-536869656c64,rev?*
G04 #@! TF.SameCoordinates,Original*
G04 #@! TF.FileFunction,Legend,Top*
G04 #@! TF.FilePolarity,Positive*
%FSLAX46Y46*%
G04 Gerber Fmt 4.6, Leading zero omitted, Abs format (unit mm)*
G04 Created by KiCad (PCBNEW 5.1.7-a382d34a8~88~ubuntu18.04.1) date 2021-11-24 17:02:52*
%MOMM*%
%LPD*%
G01*
G04 APERTURE LIST*
G04 #@! TA.AperFunction,Profile*
%ADD10C,0.050000*%
G04 #@! TD*
%ADD11C,0.120000*%
%ADD12C,0.150000*%
G04 APERTURE END LIST*
D10*
X103000000Y-40000000D02*
X103000000Y-103600000D01*
X103000000Y-40000000D02*
X200500000Y-40000000D01*
X200500000Y-150000000D02*
X200500000Y-166000000D01*
X103000000Y-150000000D02*
X103000000Y-166000000D01*
X103000000Y-135000000D02*
X103000000Y-150000000D01*
X200500000Y-135000000D02*
X200500000Y-150000000D01*
X200500000Y-135000000D02*
X200500000Y-120000000D01*
X103000000Y-120000000D02*
X103000000Y-135000000D01*
X124000000Y-47000000D02*
X124000000Y-70000000D01*
X180000000Y-47000000D02*
X124000000Y-47000000D01*
X180000000Y-70000000D02*
X180000000Y-47000000D01*
X124000000Y-70000000D02*
X180000000Y-70000000D01*
X103000000Y-166000000D02*
X200500000Y-166000000D01*
X103000000Y-103600000D02*
X103000000Y-120000000D01*
X200500000Y-103600000D02*
X200500000Y-120000000D01*
X200500000Y-40000000D02*
X200500000Y-103600000D01*
D11*
X199526000Y-140760000D02*
X199526000Y-138100000D01*
X196926000Y-140760000D02*
X199526000Y-140760000D01*
X196926000Y-138100000D02*
X199526000Y-138100000D01*
X196926000Y-140760000D02*
X196926000Y-138100000D01*
X195656000Y-140760000D02*
X194326000Y-140760000D01*
X194326000Y-140760000D02*
X194326000Y-139430000D01*
X199526000Y-145410000D02*
X199526000Y-142750000D01*
X196926000Y-145410000D02*
X199526000Y-145410000D01*
X196926000Y-142750000D02*
X199526000Y-142750000D01*
X196926000Y-145410000D02*
X196926000Y-142750000D01*
X195656000Y-145410000D02*
X194326000Y-145410000D01*
X194326000Y-145410000D02*
X194326000Y-144080000D01*
X106620000Y-163382000D02*
X109280000Y-163382000D01*
X106620000Y-158242000D02*
X106620000Y-163382000D01*
X109280000Y-158242000D02*
X109280000Y-163382000D01*
X106620000Y-158242000D02*
X109280000Y-158242000D01*
X106620000Y-156972000D02*
X106620000Y-155642000D01*
X106620000Y-155642000D02*
X107950000Y-155642000D01*
X194250000Y-163382000D02*
X196910000Y-163382000D01*
X194250000Y-158242000D02*
X194250000Y-163382000D01*
X196910000Y-158242000D02*
X196910000Y-163382000D01*
X194250000Y-158242000D02*
X196910000Y-158242000D01*
X194250000Y-156972000D02*
X194250000Y-155642000D01*
X194250000Y-155642000D02*
X195580000Y-155642000D01*
X171390000Y-163382000D02*
X174050000Y-163382000D01*
X171390000Y-158242000D02*
X171390000Y-163382000D01*
X174050000Y-158242000D02*
X174050000Y-163382000D01*
X171390000Y-158242000D02*
X174050000Y-158242000D01*
X171390000Y-156972000D02*
X171390000Y-155642000D01*
X171390000Y-155642000D02*
X172720000Y-155642000D01*
X148530000Y-163382000D02*
X151190000Y-163382000D01*
X148530000Y-158242000D02*
X148530000Y-163382000D01*
X151190000Y-158242000D02*
X151190000Y-163382000D01*
X148530000Y-158242000D02*
X151190000Y-158242000D01*
X148530000Y-156972000D02*
X148530000Y-155642000D01*
X148530000Y-155642000D02*
X149860000Y-155642000D01*
X110430000Y-163382000D02*
X113090000Y-163382000D01*
X110430000Y-158242000D02*
X110430000Y-163382000D01*
X113090000Y-158242000D02*
X113090000Y-163382000D01*
X110430000Y-158242000D02*
X113090000Y-158242000D01*
X110430000Y-156972000D02*
X110430000Y-155642000D01*
X110430000Y-155642000D02*
X111760000Y-155642000D01*
X190440000Y-163382000D02*
X193100000Y-163382000D01*
X190440000Y-158242000D02*
X190440000Y-163382000D01*
X193100000Y-158242000D02*
X193100000Y-163382000D01*
X190440000Y-158242000D02*
X193100000Y-158242000D01*
X190440000Y-156972000D02*
X190440000Y-155642000D01*
X190440000Y-155642000D02*
X191770000Y-155642000D01*
X167580000Y-163382000D02*
X170240000Y-163382000D01*
X167580000Y-158242000D02*
X167580000Y-163382000D01*
X170240000Y-158242000D02*
X170240000Y-163382000D01*
X167580000Y-158242000D02*
X170240000Y-158242000D01*
X167580000Y-156972000D02*
X167580000Y-155642000D01*
X167580000Y-155642000D02*
X168910000Y-155642000D01*
X144720000Y-163382000D02*
X147380000Y-163382000D01*
X144720000Y-158242000D02*
X144720000Y-163382000D01*
X147380000Y-158242000D02*
X147380000Y-163382000D01*
X144720000Y-158242000D02*
X147380000Y-158242000D01*
X144720000Y-156972000D02*
X144720000Y-155642000D01*
X144720000Y-155642000D02*
X146050000Y-155642000D01*
X114240000Y-163382000D02*
X116900000Y-163382000D01*
X114240000Y-158242000D02*
X114240000Y-163382000D01*
X116900000Y-158242000D02*
X116900000Y-163382000D01*
X114240000Y-158242000D02*
X116900000Y-158242000D01*
X114240000Y-156972000D02*
X114240000Y-155642000D01*
X114240000Y-155642000D02*
X115570000Y-155642000D01*
X186630000Y-163382000D02*
X189290000Y-163382000D01*
X186630000Y-158242000D02*
X186630000Y-163382000D01*
X189290000Y-158242000D02*
X189290000Y-163382000D01*
X186630000Y-158242000D02*
X189290000Y-158242000D01*
X186630000Y-156972000D02*
X186630000Y-155642000D01*
X186630000Y-155642000D02*
X187960000Y-155642000D01*
X163770000Y-163382000D02*
X166430000Y-163382000D01*
X163770000Y-158242000D02*
X163770000Y-163382000D01*
X166430000Y-158242000D02*
X166430000Y-163382000D01*
X163770000Y-158242000D02*
X166430000Y-158242000D01*
X163770000Y-156972000D02*
X163770000Y-155642000D01*
X163770000Y-155642000D02*
X165100000Y-155642000D01*
X140910000Y-163382000D02*
X143570000Y-163382000D01*
X140910000Y-158242000D02*
X140910000Y-163382000D01*
X143570000Y-158242000D02*
X143570000Y-163382000D01*
X140910000Y-158242000D02*
X143570000Y-158242000D01*
X140910000Y-156972000D02*
X140910000Y-155642000D01*
X140910000Y-155642000D02*
X142240000Y-155642000D01*
X118050000Y-163382000D02*
X120710000Y-163382000D01*
X118050000Y-158242000D02*
X118050000Y-163382000D01*
X120710000Y-158242000D02*
X120710000Y-163382000D01*
X118050000Y-158242000D02*
X120710000Y-158242000D01*
X118050000Y-156972000D02*
X118050000Y-155642000D01*
X118050000Y-155642000D02*
X119380000Y-155642000D01*
X182820000Y-163382000D02*
X185480000Y-163382000D01*
X182820000Y-158242000D02*
X182820000Y-163382000D01*
X185480000Y-158242000D02*
X185480000Y-163382000D01*
X182820000Y-158242000D02*
X185480000Y-158242000D01*
X182820000Y-156972000D02*
X182820000Y-155642000D01*
X182820000Y-155642000D02*
X184150000Y-155642000D01*
X159960000Y-163382000D02*
X162620000Y-163382000D01*
X159960000Y-158242000D02*
X159960000Y-163382000D01*
X162620000Y-158242000D02*
X162620000Y-163382000D01*
X159960000Y-158242000D02*
X162620000Y-158242000D01*
X159960000Y-156972000D02*
X159960000Y-155642000D01*
X159960000Y-155642000D02*
X161290000Y-155642000D01*
X137100000Y-163382000D02*
X139760000Y-163382000D01*
X137100000Y-158242000D02*
X137100000Y-163382000D01*
X139760000Y-158242000D02*
X139760000Y-163382000D01*
X137100000Y-158242000D02*
X139760000Y-158242000D01*
X137100000Y-156972000D02*
X137100000Y-155642000D01*
X137100000Y-155642000D02*
X138430000Y-155642000D01*
X121860000Y-163382000D02*
X124520000Y-163382000D01*
X121860000Y-158242000D02*
X121860000Y-163382000D01*
X124520000Y-158242000D02*
X124520000Y-163382000D01*
X121860000Y-158242000D02*
X124520000Y-158242000D01*
X121860000Y-156972000D02*
X121860000Y-155642000D01*
X121860000Y-155642000D02*
X123190000Y-155642000D01*
X179010000Y-163382000D02*
X181670000Y-163382000D01*
X179010000Y-158242000D02*
X179010000Y-163382000D01*
X181670000Y-158242000D02*
X181670000Y-163382000D01*
X179010000Y-158242000D02*
X181670000Y-158242000D01*
X179010000Y-156972000D02*
X179010000Y-155642000D01*
X179010000Y-155642000D02*
X180340000Y-155642000D01*
X156150000Y-163382000D02*
X158810000Y-163382000D01*
X156150000Y-158242000D02*
X156150000Y-163382000D01*
X158810000Y-158242000D02*
X158810000Y-163382000D01*
X156150000Y-158242000D02*
X158810000Y-158242000D01*
X156150000Y-156972000D02*
X156150000Y-155642000D01*
X156150000Y-155642000D02*
X157480000Y-155642000D01*
X133290000Y-163382000D02*
X135950000Y-163382000D01*
X133290000Y-158242000D02*
X133290000Y-163382000D01*
X135950000Y-158242000D02*
X135950000Y-163382000D01*
X133290000Y-158242000D02*
X135950000Y-158242000D01*
X133290000Y-156972000D02*
X133290000Y-155642000D01*
X133290000Y-155642000D02*
X134620000Y-155642000D01*
X125670000Y-163382000D02*
X128330000Y-163382000D01*
X125670000Y-158242000D02*
X125670000Y-163382000D01*
X128330000Y-158242000D02*
X128330000Y-163382000D01*
X125670000Y-158242000D02*
X128330000Y-158242000D01*
X125670000Y-156972000D02*
X125670000Y-155642000D01*
X125670000Y-155642000D02*
X127000000Y-155642000D01*
X175200000Y-163382000D02*
X177860000Y-163382000D01*
X175200000Y-158242000D02*
X175200000Y-163382000D01*
X177860000Y-158242000D02*
X177860000Y-163382000D01*
X175200000Y-158242000D02*
X177860000Y-158242000D01*
X175200000Y-156972000D02*
X175200000Y-155642000D01*
X175200000Y-155642000D02*
X176530000Y-155642000D01*
X152340000Y-163382000D02*
X155000000Y-163382000D01*
X152340000Y-158242000D02*
X152340000Y-163382000D01*
X155000000Y-158242000D02*
X155000000Y-163382000D01*
X152340000Y-158242000D02*
X155000000Y-158242000D01*
X152340000Y-156972000D02*
X152340000Y-155642000D01*
X152340000Y-155642000D02*
X153670000Y-155642000D01*
X129480000Y-163382000D02*
X132140000Y-163382000D01*
X129480000Y-158242000D02*
X129480000Y-163382000D01*
X132140000Y-158242000D02*
X132140000Y-163382000D01*
X129480000Y-158242000D02*
X132140000Y-158242000D01*
X129480000Y-156972000D02*
X129480000Y-155642000D01*
X129480000Y-155642000D02*
X130810000Y-155642000D01*
X175990000Y-148230000D02*
X175990000Y-143030000D01*
X127670000Y-148230000D02*
X175990000Y-148230000D01*
X125070000Y-143030000D02*
X175990000Y-143030000D01*
X127670000Y-148230000D02*
X127670000Y-145630000D01*
X127670000Y-145630000D02*
X125070000Y-145630000D01*
X125070000Y-145630000D02*
X125070000Y-143030000D01*
X126400000Y-148230000D02*
X125070000Y-148230000D01*
X125070000Y-148230000D02*
X125070000Y-146900000D01*
X178630000Y-78410000D02*
X173430000Y-78410000D01*
X178630000Y-126730000D02*
X178630000Y-78410000D01*
X173430000Y-129330000D02*
X173430000Y-78410000D01*
X178630000Y-126730000D02*
X176030000Y-126730000D01*
X176030000Y-126730000D02*
X176030000Y-129330000D01*
X176030000Y-129330000D02*
X173430000Y-129330000D01*
X178630000Y-128000000D02*
X178630000Y-129330000D01*
X178630000Y-129330000D02*
X177300000Y-129330000D01*
X199526000Y-135810000D02*
X199526000Y-133150000D01*
X196926000Y-135810000D02*
X199526000Y-135810000D01*
X196926000Y-133150000D02*
X199526000Y-133150000D01*
X196926000Y-135810000D02*
X196926000Y-133150000D01*
X195656000Y-135810000D02*
X194326000Y-135810000D01*
X194326000Y-135810000D02*
X194326000Y-134480000D01*
D12*
X105148095Y-39682380D02*
X105148095Y-38682380D01*
X105148095Y-39158571D02*
X105719523Y-39158571D01*
X105719523Y-39682380D02*
X105719523Y-38682380D01*
X106100476Y-38682380D02*
X106767142Y-38682380D01*
X106338571Y-39682380D01*
X195568095Y-39672380D02*
X195568095Y-38672380D01*
X195568095Y-39148571D02*
X196139523Y-39148571D01*
X196139523Y-39672380D02*
X196139523Y-38672380D01*
X196758571Y-39100952D02*
X196663333Y-39053333D01*
X196615714Y-39005714D01*
X196568095Y-38910476D01*
X196568095Y-38862857D01*
X196615714Y-38767619D01*
X196663333Y-38720000D01*
X196758571Y-38672380D01*
X196949047Y-38672380D01*
X197044285Y-38720000D01*
X197091904Y-38767619D01*
X197139523Y-38862857D01*
X197139523Y-38910476D01*
X197091904Y-39005714D01*
X197044285Y-39053333D01*
X196949047Y-39100952D01*
X196758571Y-39100952D01*
X196663333Y-39148571D01*
X196615714Y-39196190D01*
X196568095Y-39291428D01*
X196568095Y-39481904D01*
X196615714Y-39577142D01*
X196663333Y-39624761D01*
X196758571Y-39672380D01*
X196949047Y-39672380D01*
X197044285Y-39624761D01*
X197091904Y-39577142D01*
X197139523Y-39481904D01*
X197139523Y-39291428D01*
X197091904Y-39196190D01*
X197044285Y-39148571D01*
X196949047Y-39100952D01*
X186538095Y-97512380D02*
X186538095Y-96512380D01*
X186538095Y-96988571D02*
X187109523Y-96988571D01*
X187109523Y-97512380D02*
X187109523Y-96512380D01*
X188014285Y-96512380D02*
X187823809Y-96512380D01*
X187728571Y-96560000D01*
X187680952Y-96607619D01*
X187585714Y-96750476D01*
X187538095Y-96940952D01*
X187538095Y-97321904D01*
X187585714Y-97417142D01*
X187633333Y-97464761D01*
X187728571Y-97512380D01*
X187919047Y-97512380D01*
X188014285Y-97464761D01*
X188061904Y-97417142D01*
X188109523Y-97321904D01*
X188109523Y-97083809D01*
X188061904Y-96988571D01*
X188014285Y-96940952D01*
X187919047Y-96893333D01*
X187728571Y-96893333D01*
X187633333Y-96940952D01*
X187585714Y-96988571D01*
X187538095Y-97083809D01*
X117898095Y-97442380D02*
X117898095Y-96442380D01*
X117898095Y-96918571D02*
X118469523Y-96918571D01*
X118469523Y-97442380D02*
X118469523Y-96442380D01*
X119421904Y-96442380D02*
X118945714Y-96442380D01*
X118898095Y-96918571D01*
X118945714Y-96870952D01*
X119040952Y-96823333D01*
X119279047Y-96823333D01*
X119374285Y-96870952D01*
X119421904Y-96918571D01*
X119469523Y-97013809D01*
X119469523Y-97251904D01*
X119421904Y-97347142D01*
X119374285Y-97394761D01*
X119279047Y-97442380D01*
X119040952Y-97442380D01*
X118945714Y-97394761D01*
X118898095Y-97347142D01*
X175738095Y-70752380D02*
X175738095Y-69752380D01*
X175738095Y-70228571D02*
X176309523Y-70228571D01*
X176309523Y-70752380D02*
X176309523Y-69752380D01*
X177214285Y-70085714D02*
X177214285Y-70752380D01*
X176976190Y-69704761D02*
X176738095Y-70419047D01*
X177357142Y-70419047D01*
X126738095Y-70752380D02*
X126738095Y-69752380D01*
X126738095Y-70228571D02*
X127309523Y-70228571D01*
X127309523Y-70752380D02*
X127309523Y-69752380D01*
X127690476Y-69752380D02*
X128309523Y-69752380D01*
X127976190Y-70133333D01*
X128119047Y-70133333D01*
X128214285Y-70180952D01*
X128261904Y-70228571D01*
X128309523Y-70323809D01*
X128309523Y-70561904D01*
X128261904Y-70657142D01*
X128214285Y-70704761D01*
X128119047Y-70752380D01*
X127833333Y-70752380D01*
X127738095Y-70704761D01*
X127690476Y-70657142D01*
X175738095Y-128752380D02*
X175738095Y-127752380D01*
X175738095Y-128228571D02*
X176309523Y-128228571D01*
X176309523Y-128752380D02*
X176309523Y-127752380D01*
X176738095Y-127847619D02*
X176785714Y-127800000D01*
X176880952Y-127752380D01*
X177119047Y-127752380D01*
X177214285Y-127800000D01*
X177261904Y-127847619D01*
X177309523Y-127942857D01*
X177309523Y-128038095D01*
X177261904Y-128180952D01*
X176690476Y-128752380D01*
X177309523Y-128752380D01*
X126738095Y-128752380D02*
X126738095Y-127752380D01*
X126738095Y-128228571D02*
X127309523Y-128228571D01*
X127309523Y-128752380D02*
X127309523Y-127752380D01*
X128309523Y-128752380D02*
X127738095Y-128752380D01*
X128023809Y-128752380D02*
X128023809Y-127752380D01*
X127928571Y-127895238D01*
X127833333Y-127990476D01*
X127738095Y-128038095D01*
X192778380Y-139763333D02*
X193492666Y-139763333D01*
X193635523Y-139810952D01*
X193730761Y-139906190D01*
X193778380Y-140049047D01*
X193778380Y-140144285D01*
X193111714Y-138858571D02*
X193778380Y-138858571D01*
X192730761Y-139096666D02*
X193445047Y-139334761D01*
X193445047Y-138715714D01*
X192778380Y-144413333D02*
X193492666Y-144413333D01*
X193635523Y-144460952D01*
X193730761Y-144556190D01*
X193778380Y-144699047D01*
X193778380Y-144794285D01*
X192778380Y-144032380D02*
X192778380Y-143413333D01*
X193159333Y-143746666D01*
X193159333Y-143603809D01*
X193206952Y-143508571D01*
X193254571Y-143460952D01*
X193349809Y-143413333D01*
X193587904Y-143413333D01*
X193683142Y-143460952D01*
X193730761Y-143508571D01*
X193778380Y-143603809D01*
X193778380Y-143889523D01*
X193730761Y-143984761D01*
X193683142Y-144032380D01*
X107140476Y-154094380D02*
X107140476Y-154808666D01*
X107092857Y-154951523D01*
X106997619Y-155046761D01*
X106854761Y-155094380D01*
X106759523Y-155094380D01*
X107569047Y-154189619D02*
X107616666Y-154142000D01*
X107711904Y-154094380D01*
X107950000Y-154094380D01*
X108045238Y-154142000D01*
X108092857Y-154189619D01*
X108140476Y-154284857D01*
X108140476Y-154380095D01*
X108092857Y-154522952D01*
X107521428Y-155094380D01*
X108140476Y-155094380D01*
X108616666Y-155094380D02*
X108807142Y-155094380D01*
X108902380Y-155046761D01*
X108950000Y-154999142D01*
X109045238Y-154856285D01*
X109092857Y-154665809D01*
X109092857Y-154284857D01*
X109045238Y-154189619D01*
X108997619Y-154142000D01*
X108902380Y-154094380D01*
X108711904Y-154094380D01*
X108616666Y-154142000D01*
X108569047Y-154189619D01*
X108521428Y-154284857D01*
X108521428Y-154522952D01*
X108569047Y-154618190D01*
X108616666Y-154665809D01*
X108711904Y-154713428D01*
X108902380Y-154713428D01*
X108997619Y-154665809D01*
X109045238Y-154618190D01*
X109092857Y-154522952D01*
X194770476Y-154094380D02*
X194770476Y-154808666D01*
X194722857Y-154951523D01*
X194627619Y-155046761D01*
X194484761Y-155094380D01*
X194389523Y-155094380D01*
X195199047Y-154189619D02*
X195246666Y-154142000D01*
X195341904Y-154094380D01*
X195580000Y-154094380D01*
X195675238Y-154142000D01*
X195722857Y-154189619D01*
X195770476Y-154284857D01*
X195770476Y-154380095D01*
X195722857Y-154522952D01*
X195151428Y-155094380D01*
X195770476Y-155094380D01*
X196341904Y-154522952D02*
X196246666Y-154475333D01*
X196199047Y-154427714D01*
X196151428Y-154332476D01*
X196151428Y-154284857D01*
X196199047Y-154189619D01*
X196246666Y-154142000D01*
X196341904Y-154094380D01*
X196532380Y-154094380D01*
X196627619Y-154142000D01*
X196675238Y-154189619D01*
X196722857Y-154284857D01*
X196722857Y-154332476D01*
X196675238Y-154427714D01*
X196627619Y-154475333D01*
X196532380Y-154522952D01*
X196341904Y-154522952D01*
X196246666Y-154570571D01*
X196199047Y-154618190D01*
X196151428Y-154713428D01*
X196151428Y-154903904D01*
X196199047Y-154999142D01*
X196246666Y-155046761D01*
X196341904Y-155094380D01*
X196532380Y-155094380D01*
X196627619Y-155046761D01*
X196675238Y-154999142D01*
X196722857Y-154903904D01*
X196722857Y-154713428D01*
X196675238Y-154618190D01*
X196627619Y-154570571D01*
X196532380Y-154522952D01*
X171910476Y-154094380D02*
X171910476Y-154808666D01*
X171862857Y-154951523D01*
X171767619Y-155046761D01*
X171624761Y-155094380D01*
X171529523Y-155094380D01*
X172339047Y-154189619D02*
X172386666Y-154142000D01*
X172481904Y-154094380D01*
X172720000Y-154094380D01*
X172815238Y-154142000D01*
X172862857Y-154189619D01*
X172910476Y-154284857D01*
X172910476Y-154380095D01*
X172862857Y-154522952D01*
X172291428Y-155094380D01*
X172910476Y-155094380D01*
X173243809Y-154094380D02*
X173910476Y-154094380D01*
X173481904Y-155094380D01*
X149050476Y-154094380D02*
X149050476Y-154808666D01*
X149002857Y-154951523D01*
X148907619Y-155046761D01*
X148764761Y-155094380D01*
X148669523Y-155094380D01*
X149479047Y-154189619D02*
X149526666Y-154142000D01*
X149621904Y-154094380D01*
X149860000Y-154094380D01*
X149955238Y-154142000D01*
X150002857Y-154189619D01*
X150050476Y-154284857D01*
X150050476Y-154380095D01*
X150002857Y-154522952D01*
X149431428Y-155094380D01*
X150050476Y-155094380D01*
X150907619Y-154094380D02*
X150717142Y-154094380D01*
X150621904Y-154142000D01*
X150574285Y-154189619D01*
X150479047Y-154332476D01*
X150431428Y-154522952D01*
X150431428Y-154903904D01*
X150479047Y-154999142D01*
X150526666Y-155046761D01*
X150621904Y-155094380D01*
X150812380Y-155094380D01*
X150907619Y-155046761D01*
X150955238Y-154999142D01*
X151002857Y-154903904D01*
X151002857Y-154665809D01*
X150955238Y-154570571D01*
X150907619Y-154522952D01*
X150812380Y-154475333D01*
X150621904Y-154475333D01*
X150526666Y-154522952D01*
X150479047Y-154570571D01*
X150431428Y-154665809D01*
X110950476Y-154094380D02*
X110950476Y-154808666D01*
X110902857Y-154951523D01*
X110807619Y-155046761D01*
X110664761Y-155094380D01*
X110569523Y-155094380D01*
X111379047Y-154189619D02*
X111426666Y-154142000D01*
X111521904Y-154094380D01*
X111760000Y-154094380D01*
X111855238Y-154142000D01*
X111902857Y-154189619D01*
X111950476Y-154284857D01*
X111950476Y-154380095D01*
X111902857Y-154522952D01*
X111331428Y-155094380D01*
X111950476Y-155094380D01*
X112855238Y-154094380D02*
X112379047Y-154094380D01*
X112331428Y-154570571D01*
X112379047Y-154522952D01*
X112474285Y-154475333D01*
X112712380Y-154475333D01*
X112807619Y-154522952D01*
X112855238Y-154570571D01*
X112902857Y-154665809D01*
X112902857Y-154903904D01*
X112855238Y-154999142D01*
X112807619Y-155046761D01*
X112712380Y-155094380D01*
X112474285Y-155094380D01*
X112379047Y-155046761D01*
X112331428Y-154999142D01*
X190960476Y-154094380D02*
X190960476Y-154808666D01*
X190912857Y-154951523D01*
X190817619Y-155046761D01*
X190674761Y-155094380D01*
X190579523Y-155094380D01*
X191389047Y-154189619D02*
X191436666Y-154142000D01*
X191531904Y-154094380D01*
X191770000Y-154094380D01*
X191865238Y-154142000D01*
X191912857Y-154189619D01*
X191960476Y-154284857D01*
X191960476Y-154380095D01*
X191912857Y-154522952D01*
X191341428Y-155094380D01*
X191960476Y-155094380D01*
X192817619Y-154427714D02*
X192817619Y-155094380D01*
X192579523Y-154046761D02*
X192341428Y-154761047D01*
X192960476Y-154761047D01*
X168100476Y-154094380D02*
X168100476Y-154808666D01*
X168052857Y-154951523D01*
X167957619Y-155046761D01*
X167814761Y-155094380D01*
X167719523Y-155094380D01*
X168529047Y-154189619D02*
X168576666Y-154142000D01*
X168671904Y-154094380D01*
X168910000Y-154094380D01*
X169005238Y-154142000D01*
X169052857Y-154189619D01*
X169100476Y-154284857D01*
X169100476Y-154380095D01*
X169052857Y-154522952D01*
X168481428Y-155094380D01*
X169100476Y-155094380D01*
X169433809Y-154094380D02*
X170052857Y-154094380D01*
X169719523Y-154475333D01*
X169862380Y-154475333D01*
X169957619Y-154522952D01*
X170005238Y-154570571D01*
X170052857Y-154665809D01*
X170052857Y-154903904D01*
X170005238Y-154999142D01*
X169957619Y-155046761D01*
X169862380Y-155094380D01*
X169576666Y-155094380D01*
X169481428Y-155046761D01*
X169433809Y-154999142D01*
X145240476Y-154094380D02*
X145240476Y-154808666D01*
X145192857Y-154951523D01*
X145097619Y-155046761D01*
X144954761Y-155094380D01*
X144859523Y-155094380D01*
X145669047Y-154189619D02*
X145716666Y-154142000D01*
X145811904Y-154094380D01*
X146050000Y-154094380D01*
X146145238Y-154142000D01*
X146192857Y-154189619D01*
X146240476Y-154284857D01*
X146240476Y-154380095D01*
X146192857Y-154522952D01*
X145621428Y-155094380D01*
X146240476Y-155094380D01*
X146621428Y-154189619D02*
X146669047Y-154142000D01*
X146764285Y-154094380D01*
X147002380Y-154094380D01*
X147097619Y-154142000D01*
X147145238Y-154189619D01*
X147192857Y-154284857D01*
X147192857Y-154380095D01*
X147145238Y-154522952D01*
X146573809Y-155094380D01*
X147192857Y-155094380D01*
X114760476Y-154094380D02*
X114760476Y-154808666D01*
X114712857Y-154951523D01*
X114617619Y-155046761D01*
X114474761Y-155094380D01*
X114379523Y-155094380D01*
X115189047Y-154189619D02*
X115236666Y-154142000D01*
X115331904Y-154094380D01*
X115570000Y-154094380D01*
X115665238Y-154142000D01*
X115712857Y-154189619D01*
X115760476Y-154284857D01*
X115760476Y-154380095D01*
X115712857Y-154522952D01*
X115141428Y-155094380D01*
X115760476Y-155094380D01*
X116712857Y-155094380D02*
X116141428Y-155094380D01*
X116427142Y-155094380D02*
X116427142Y-154094380D01*
X116331904Y-154237238D01*
X116236666Y-154332476D01*
X116141428Y-154380095D01*
X187150476Y-154094380D02*
X187150476Y-154808666D01*
X187102857Y-154951523D01*
X187007619Y-155046761D01*
X186864761Y-155094380D01*
X186769523Y-155094380D01*
X187579047Y-154189619D02*
X187626666Y-154142000D01*
X187721904Y-154094380D01*
X187960000Y-154094380D01*
X188055238Y-154142000D01*
X188102857Y-154189619D01*
X188150476Y-154284857D01*
X188150476Y-154380095D01*
X188102857Y-154522952D01*
X187531428Y-155094380D01*
X188150476Y-155094380D01*
X188769523Y-154094380D02*
X188864761Y-154094380D01*
X188960000Y-154142000D01*
X189007619Y-154189619D01*
X189055238Y-154284857D01*
X189102857Y-154475333D01*
X189102857Y-154713428D01*
X189055238Y-154903904D01*
X189007619Y-154999142D01*
X188960000Y-155046761D01*
X188864761Y-155094380D01*
X188769523Y-155094380D01*
X188674285Y-155046761D01*
X188626666Y-154999142D01*
X188579047Y-154903904D01*
X188531428Y-154713428D01*
X188531428Y-154475333D01*
X188579047Y-154284857D01*
X188626666Y-154189619D01*
X188674285Y-154142000D01*
X188769523Y-154094380D01*
X164290476Y-154094380D02*
X164290476Y-154808666D01*
X164242857Y-154951523D01*
X164147619Y-155046761D01*
X164004761Y-155094380D01*
X163909523Y-155094380D01*
X165290476Y-155094380D02*
X164719047Y-155094380D01*
X165004761Y-155094380D02*
X165004761Y-154094380D01*
X164909523Y-154237238D01*
X164814285Y-154332476D01*
X164719047Y-154380095D01*
X165766666Y-155094380D02*
X165957142Y-155094380D01*
X166052380Y-155046761D01*
X166100000Y-154999142D01*
X166195238Y-154856285D01*
X166242857Y-154665809D01*
X166242857Y-154284857D01*
X166195238Y-154189619D01*
X166147619Y-154142000D01*
X166052380Y-154094380D01*
X165861904Y-154094380D01*
X165766666Y-154142000D01*
X165719047Y-154189619D01*
X165671428Y-154284857D01*
X165671428Y-154522952D01*
X165719047Y-154618190D01*
X165766666Y-154665809D01*
X165861904Y-154713428D01*
X166052380Y-154713428D01*
X166147619Y-154665809D01*
X166195238Y-154618190D01*
X166242857Y-154522952D01*
X141430476Y-154094380D02*
X141430476Y-154808666D01*
X141382857Y-154951523D01*
X141287619Y-155046761D01*
X141144761Y-155094380D01*
X141049523Y-155094380D01*
X142430476Y-155094380D02*
X141859047Y-155094380D01*
X142144761Y-155094380D02*
X142144761Y-154094380D01*
X142049523Y-154237238D01*
X141954285Y-154332476D01*
X141859047Y-154380095D01*
X143001904Y-154522952D02*
X142906666Y-154475333D01*
X142859047Y-154427714D01*
X142811428Y-154332476D01*
X142811428Y-154284857D01*
X142859047Y-154189619D01*
X142906666Y-154142000D01*
X143001904Y-154094380D01*
X143192380Y-154094380D01*
X143287619Y-154142000D01*
X143335238Y-154189619D01*
X143382857Y-154284857D01*
X143382857Y-154332476D01*
X143335238Y-154427714D01*
X143287619Y-154475333D01*
X143192380Y-154522952D01*
X143001904Y-154522952D01*
X142906666Y-154570571D01*
X142859047Y-154618190D01*
X142811428Y-154713428D01*
X142811428Y-154903904D01*
X142859047Y-154999142D01*
X142906666Y-155046761D01*
X143001904Y-155094380D01*
X143192380Y-155094380D01*
X143287619Y-155046761D01*
X143335238Y-154999142D01*
X143382857Y-154903904D01*
X143382857Y-154713428D01*
X143335238Y-154618190D01*
X143287619Y-154570571D01*
X143192380Y-154522952D01*
X118570476Y-154094380D02*
X118570476Y-154808666D01*
X118522857Y-154951523D01*
X118427619Y-155046761D01*
X118284761Y-155094380D01*
X118189523Y-155094380D01*
X119570476Y-155094380D02*
X118999047Y-155094380D01*
X119284761Y-155094380D02*
X119284761Y-154094380D01*
X119189523Y-154237238D01*
X119094285Y-154332476D01*
X118999047Y-154380095D01*
X119903809Y-154094380D02*
X120570476Y-154094380D01*
X120141904Y-155094380D01*
X183340476Y-154094380D02*
X183340476Y-154808666D01*
X183292857Y-154951523D01*
X183197619Y-155046761D01*
X183054761Y-155094380D01*
X182959523Y-155094380D01*
X184340476Y-155094380D02*
X183769047Y-155094380D01*
X184054761Y-155094380D02*
X184054761Y-154094380D01*
X183959523Y-154237238D01*
X183864285Y-154332476D01*
X183769047Y-154380095D01*
X185197619Y-154094380D02*
X185007142Y-154094380D01*
X184911904Y-154142000D01*
X184864285Y-154189619D01*
X184769047Y-154332476D01*
X184721428Y-154522952D01*
X184721428Y-154903904D01*
X184769047Y-154999142D01*
X184816666Y-155046761D01*
X184911904Y-155094380D01*
X185102380Y-155094380D01*
X185197619Y-155046761D01*
X185245238Y-154999142D01*
X185292857Y-154903904D01*
X185292857Y-154665809D01*
X185245238Y-154570571D01*
X185197619Y-154522952D01*
X185102380Y-154475333D01*
X184911904Y-154475333D01*
X184816666Y-154522952D01*
X184769047Y-154570571D01*
X184721428Y-154665809D01*
X160480476Y-154094380D02*
X160480476Y-154808666D01*
X160432857Y-154951523D01*
X160337619Y-155046761D01*
X160194761Y-155094380D01*
X160099523Y-155094380D01*
X161480476Y-155094380D02*
X160909047Y-155094380D01*
X161194761Y-155094380D02*
X161194761Y-154094380D01*
X161099523Y-154237238D01*
X161004285Y-154332476D01*
X160909047Y-154380095D01*
X162385238Y-154094380D02*
X161909047Y-154094380D01*
X161861428Y-154570571D01*
X161909047Y-154522952D01*
X162004285Y-154475333D01*
X162242380Y-154475333D01*
X162337619Y-154522952D01*
X162385238Y-154570571D01*
X162432857Y-154665809D01*
X162432857Y-154903904D01*
X162385238Y-154999142D01*
X162337619Y-155046761D01*
X162242380Y-155094380D01*
X162004285Y-155094380D01*
X161909047Y-155046761D01*
X161861428Y-154999142D01*
X137620476Y-154094380D02*
X137620476Y-154808666D01*
X137572857Y-154951523D01*
X137477619Y-155046761D01*
X137334761Y-155094380D01*
X137239523Y-155094380D01*
X138620476Y-155094380D02*
X138049047Y-155094380D01*
X138334761Y-155094380D02*
X138334761Y-154094380D01*
X138239523Y-154237238D01*
X138144285Y-154332476D01*
X138049047Y-154380095D01*
X139477619Y-154427714D02*
X139477619Y-155094380D01*
X139239523Y-154046761D02*
X139001428Y-154761047D01*
X139620476Y-154761047D01*
X122380476Y-154094380D02*
X122380476Y-154808666D01*
X122332857Y-154951523D01*
X122237619Y-155046761D01*
X122094761Y-155094380D01*
X121999523Y-155094380D01*
X123380476Y-155094380D02*
X122809047Y-155094380D01*
X123094761Y-155094380D02*
X123094761Y-154094380D01*
X122999523Y-154237238D01*
X122904285Y-154332476D01*
X122809047Y-154380095D01*
X123713809Y-154094380D02*
X124332857Y-154094380D01*
X123999523Y-154475333D01*
X124142380Y-154475333D01*
X124237619Y-154522952D01*
X124285238Y-154570571D01*
X124332857Y-154665809D01*
X124332857Y-154903904D01*
X124285238Y-154999142D01*
X124237619Y-155046761D01*
X124142380Y-155094380D01*
X123856666Y-155094380D01*
X123761428Y-155046761D01*
X123713809Y-154999142D01*
X179530476Y-154094380D02*
X179530476Y-154808666D01*
X179482857Y-154951523D01*
X179387619Y-155046761D01*
X179244761Y-155094380D01*
X179149523Y-155094380D01*
X180530476Y-155094380D02*
X179959047Y-155094380D01*
X180244761Y-155094380D02*
X180244761Y-154094380D01*
X180149523Y-154237238D01*
X180054285Y-154332476D01*
X179959047Y-154380095D01*
X180911428Y-154189619D02*
X180959047Y-154142000D01*
X181054285Y-154094380D01*
X181292380Y-154094380D01*
X181387619Y-154142000D01*
X181435238Y-154189619D01*
X181482857Y-154284857D01*
X181482857Y-154380095D01*
X181435238Y-154522952D01*
X180863809Y-155094380D01*
X181482857Y-155094380D01*
X156670476Y-154094380D02*
X156670476Y-154808666D01*
X156622857Y-154951523D01*
X156527619Y-155046761D01*
X156384761Y-155094380D01*
X156289523Y-155094380D01*
X157670476Y-155094380D02*
X157099047Y-155094380D01*
X157384761Y-155094380D02*
X157384761Y-154094380D01*
X157289523Y-154237238D01*
X157194285Y-154332476D01*
X157099047Y-154380095D01*
X158622857Y-155094380D02*
X158051428Y-155094380D01*
X158337142Y-155094380D02*
X158337142Y-154094380D01*
X158241904Y-154237238D01*
X158146666Y-154332476D01*
X158051428Y-154380095D01*
X133810476Y-154094380D02*
X133810476Y-154808666D01*
X133762857Y-154951523D01*
X133667619Y-155046761D01*
X133524761Y-155094380D01*
X133429523Y-155094380D01*
X134810476Y-155094380D02*
X134239047Y-155094380D01*
X134524761Y-155094380D02*
X134524761Y-154094380D01*
X134429523Y-154237238D01*
X134334285Y-154332476D01*
X134239047Y-154380095D01*
X135429523Y-154094380D02*
X135524761Y-154094380D01*
X135620000Y-154142000D01*
X135667619Y-154189619D01*
X135715238Y-154284857D01*
X135762857Y-154475333D01*
X135762857Y-154713428D01*
X135715238Y-154903904D01*
X135667619Y-154999142D01*
X135620000Y-155046761D01*
X135524761Y-155094380D01*
X135429523Y-155094380D01*
X135334285Y-155046761D01*
X135286666Y-154999142D01*
X135239047Y-154903904D01*
X135191428Y-154713428D01*
X135191428Y-154475333D01*
X135239047Y-154284857D01*
X135286666Y-154189619D01*
X135334285Y-154142000D01*
X135429523Y-154094380D01*
X126666666Y-154094380D02*
X126666666Y-154808666D01*
X126619047Y-154951523D01*
X126523809Y-155046761D01*
X126380952Y-155094380D01*
X126285714Y-155094380D01*
X127190476Y-155094380D02*
X127380952Y-155094380D01*
X127476190Y-155046761D01*
X127523809Y-154999142D01*
X127619047Y-154856285D01*
X127666666Y-154665809D01*
X127666666Y-154284857D01*
X127619047Y-154189619D01*
X127571428Y-154142000D01*
X127476190Y-154094380D01*
X127285714Y-154094380D01*
X127190476Y-154142000D01*
X127142857Y-154189619D01*
X127095238Y-154284857D01*
X127095238Y-154522952D01*
X127142857Y-154618190D01*
X127190476Y-154665809D01*
X127285714Y-154713428D01*
X127476190Y-154713428D01*
X127571428Y-154665809D01*
X127619047Y-154618190D01*
X127666666Y-154522952D01*
X176196666Y-154094380D02*
X176196666Y-154808666D01*
X176149047Y-154951523D01*
X176053809Y-155046761D01*
X175910952Y-155094380D01*
X175815714Y-155094380D01*
X176815714Y-154522952D02*
X176720476Y-154475333D01*
X176672857Y-154427714D01*
X176625238Y-154332476D01*
X176625238Y-154284857D01*
X176672857Y-154189619D01*
X176720476Y-154142000D01*
X176815714Y-154094380D01*
X177006190Y-154094380D01*
X177101428Y-154142000D01*
X177149047Y-154189619D01*
X177196666Y-154284857D01*
X177196666Y-154332476D01*
X177149047Y-154427714D01*
X177101428Y-154475333D01*
X177006190Y-154522952D01*
X176815714Y-154522952D01*
X176720476Y-154570571D01*
X176672857Y-154618190D01*
X176625238Y-154713428D01*
X176625238Y-154903904D01*
X176672857Y-154999142D01*
X176720476Y-155046761D01*
X176815714Y-155094380D01*
X177006190Y-155094380D01*
X177101428Y-155046761D01*
X177149047Y-154999142D01*
X177196666Y-154903904D01*
X177196666Y-154713428D01*
X177149047Y-154618190D01*
X177101428Y-154570571D01*
X177006190Y-154522952D01*
X153336666Y-154094380D02*
X153336666Y-154808666D01*
X153289047Y-154951523D01*
X153193809Y-155046761D01*
X153050952Y-155094380D01*
X152955714Y-155094380D01*
X153717619Y-154094380D02*
X154384285Y-154094380D01*
X153955714Y-155094380D01*
X130476666Y-154094380D02*
X130476666Y-154808666D01*
X130429047Y-154951523D01*
X130333809Y-155046761D01*
X130190952Y-155094380D01*
X130095714Y-155094380D01*
X131381428Y-154094380D02*
X131190952Y-154094380D01*
X131095714Y-154142000D01*
X131048095Y-154189619D01*
X130952857Y-154332476D01*
X130905238Y-154522952D01*
X130905238Y-154903904D01*
X130952857Y-154999142D01*
X131000476Y-155046761D01*
X131095714Y-155094380D01*
X131286190Y-155094380D01*
X131381428Y-155046761D01*
X131429047Y-154999142D01*
X131476666Y-154903904D01*
X131476666Y-154665809D01*
X131429047Y-154570571D01*
X131381428Y-154522952D01*
X131286190Y-154475333D01*
X131095714Y-154475333D01*
X131000476Y-154522952D01*
X130952857Y-154570571D01*
X130905238Y-154665809D01*
X123522380Y-145963333D02*
X124236666Y-145963333D01*
X124379523Y-146010952D01*
X124474761Y-146106190D01*
X124522380Y-146249047D01*
X124522380Y-146344285D01*
X123522380Y-145010952D02*
X123522380Y-145487142D01*
X123998571Y-145534761D01*
X123950952Y-145487142D01*
X123903333Y-145391904D01*
X123903333Y-145153809D01*
X123950952Y-145058571D01*
X123998571Y-145010952D01*
X124093809Y-144963333D01*
X124331904Y-144963333D01*
X124427142Y-145010952D01*
X124474761Y-145058571D01*
X124522380Y-145153809D01*
X124522380Y-145391904D01*
X124474761Y-145487142D01*
X124427142Y-145534761D01*
X175696666Y-129782380D02*
X175696666Y-130496666D01*
X175649047Y-130639523D01*
X175553809Y-130734761D01*
X175410952Y-130782380D01*
X175315714Y-130782380D01*
X176125238Y-129877619D02*
X176172857Y-129830000D01*
X176268095Y-129782380D01*
X176506190Y-129782380D01*
X176601428Y-129830000D01*
X176649047Y-129877619D01*
X176696666Y-129972857D01*
X176696666Y-130068095D01*
X176649047Y-130210952D01*
X176077619Y-130782380D01*
X176696666Y-130782380D01*
X192778380Y-134813333D02*
X193492666Y-134813333D01*
X193635523Y-134860952D01*
X193730761Y-134956190D01*
X193778380Y-135099047D01*
X193778380Y-135194285D01*
X193778380Y-133813333D02*
X193778380Y-134384761D01*
X193778380Y-134099047D02*
X192778380Y-134099047D01*
X192921238Y-134194285D01*
X193016476Y-134289523D01*
X193064095Y-134384761D01*
M02*
