M48
; DRILL file {KiCad 5.1.7-a382d34a8~88~ubuntu18.04.1} date Fri Jun  4 11:32:24 2021
; FORMAT={-:-/ absolute / inch / decimal}
; #@! TF.CreationDate,2021-06-04T11:32:24+02:00
; #@! TF.GenerationSoftware,Kicad,Pcbnew,5.1.7-a382d34a8~88~ubuntu18.04.1
; #@! TF.FileFunction,Plated,1,2,PTH
FMAT,2
INCH
T1C0.0394
T2C0.1083
T3C0.1654
%
G90
G05
T1
X7.2Y-4.9
X7.56Y-4.9
X6.5Y-6.18
X6.5Y-6.28
X6.5Y-6.38
X4.85Y-6.18
X4.85Y-6.28
X4.85Y-6.38
X7.703Y-5.2945
X7.803Y-5.2945
X5.0Y-5.5
X5.0Y-5.6
X5.1Y-5.5
X5.1Y-5.6
X5.2Y-5.5
X5.2Y-5.6
X5.3Y-5.5
X5.3Y-5.6
X5.4Y-5.5
X5.4Y-5.6
X5.5Y-5.5
X5.5Y-5.6
X5.6Y-5.5
X5.6Y-5.6
X5.7Y-5.5
X5.7Y-5.6
X5.8Y-5.5
X5.8Y-5.6
X5.9Y-5.5
X5.9Y-5.6
X6.0Y-5.5
X6.0Y-5.6
X6.1Y-5.5
X6.1Y-5.6
X6.2Y-5.5
X6.2Y-5.6
X6.3Y-5.5
X6.3Y-5.6
X6.4Y-5.5
X6.4Y-5.6
X6.5Y-5.5
X6.5Y-5.6
X6.6Y-5.5
X6.6Y-5.6
X6.7Y-5.5
X6.7Y-5.6
X6.8Y-5.5
X6.8Y-5.6
X6.9Y-5.5
X6.9Y-5.6
X7.4Y-6.18
X7.4Y-6.28
X7.4Y-6.38
X7.7Y-6.18
X7.7Y-6.28
X7.7Y-6.38
X6.95Y-6.18
X6.95Y-6.28
X6.95Y-6.38
X6.05Y-6.18
X6.05Y-6.28
X6.05Y-6.38
X7.55Y-6.18
X7.55Y-6.28
X7.55Y-6.38
X4.25Y-6.18
X4.25Y-6.28
X4.25Y-6.38
X6.2Y-6.18
X6.2Y-6.28
X6.2Y-6.38
X4.55Y-6.18
X4.55Y-6.28
X4.55Y-6.38
X5.9Y-6.18
X5.9Y-6.28
X5.9Y-6.38
X6.65Y-6.18
X6.65Y-6.28
X6.65Y-6.38
X6.8Y-6.18
X6.8Y-6.28
X6.8Y-6.38
X5.15Y-6.18
X5.15Y-6.28
X5.15Y-6.38
X7.1Y-6.18
X7.1Y-6.28
X7.1Y-6.38
X5.45Y-6.18
X5.45Y-6.28
X5.45Y-6.38
X6.8803Y-3.1394
X6.8803Y-3.2394
X6.8803Y-3.3394
X6.8803Y-3.4394
X6.8803Y-3.5394
X6.8803Y-3.6394
X6.8803Y-3.7394
X6.8803Y-3.8394
X6.8803Y-3.9394
X6.8803Y-4.0394
X6.8803Y-4.1394
X6.8803Y-4.2394
X6.8803Y-4.3394
X6.8803Y-4.4394
X6.8803Y-4.5394
X6.8803Y-4.6394
X6.8803Y-4.7394
X6.8803Y-4.8394
X6.8803Y-4.9394
X6.8803Y-5.0394
X6.9803Y-3.1394
X6.9803Y-3.2394
X6.9803Y-3.3394
X6.9803Y-3.4394
X6.9803Y-3.5394
X6.9803Y-3.6394
X6.9803Y-3.7394
X6.9803Y-3.8394
X6.9803Y-3.9394
X6.9803Y-4.0394
X6.9803Y-4.1394
X6.9803Y-4.2394
X6.9803Y-4.3394
X6.9803Y-4.4394
X6.9803Y-4.5394
X6.9803Y-4.6394
X6.9803Y-4.7394
X6.9803Y-4.8394
X6.9803Y-4.9394
X6.9803Y-5.0394
X5.0Y-6.18
X5.0Y-6.28
X5.0Y-6.38
X4.7Y-6.18
X4.7Y-6.28
X4.7Y-6.38
X5.3Y-6.18
X5.3Y-6.28
X5.3Y-6.38
X5.75Y-6.18
X5.75Y-6.28
X5.75Y-6.38
X4.4Y-6.18
X4.4Y-6.28
X4.4Y-6.38
X5.6Y-6.18
X5.6Y-6.28
X5.6Y-6.38
X6.35Y-6.18
X6.35Y-6.28
X6.35Y-6.38
X7.703Y-5.6724
X7.803Y-5.6724
X7.703Y-5.4894
X7.803Y-5.4894
X7.25Y-6.18
X7.25Y-6.28
X7.25Y-6.38
T2
X5.0197Y-2.9331
X5.0197Y-5.2165
X6.9488Y-2.9331
X6.9488Y-5.2165
T3
X4.1929Y-1.7008
X4.6339Y-3.9882
X7.2795Y-3.9882
X7.7559Y-1.7008
T0
M30
